<svg width="11" height="8" viewBox="0 0 11 8" fill="none" xmlns="http://www.w3.org/2000/svg">
<path d="M3.57057 6.42243L3.92738 6.7859L4.28419 6.42243L10.0205 0.57897C10.0748 0.526699 10.145 0.499382 10.2161 0.500011C10.2882 0.500649 10.3591 0.530045 10.4129 0.584874C10.467 0.640001 10.4993 0.716473 10.5 0.798307C10.5005 0.857663 10.4843 0.914543 10.4551 0.962751L10.4115 1.0072L4.12104 7.41516C4.12102 7.41518 4.12101 7.41519 4.12099 7.41521C4.06656 7.47061 3.99476 7.5 3.92188 7.5C3.84898 7.5 3.77715 7.47059 3.72272 7.41516L0.581321 4.21506C0.52943 4.15909 0.499323 4.08299 0.500012 4.00231C0.50071 3.92048 0.532997 3.84401 0.587115 3.78888C0.640939 3.73405 0.711802 3.70465 0.783902 3.70402C0.854961 3.70339 0.925209 3.7307 0.97954 3.78298L3.57057 6.42243Z" fill="#30BF69" stroke="#30BF69"/>
</svg>
